<svg width="152" height="153" viewBox="0 0 152 153" fill="none" xmlns="http://www.w3.org/2000/svg">
<path d="M36.7972 79.0649L0.56487 72.7482C0.56487 72.7482 -1.66436 141.17 61.928 151.159C125.52 161.148 148.336 98.5104 148.336 98.5104L110.15 91.8531C110.15 91.8531 99.3883 119.99 68.2447 114.927C37.1011 109.863 36.7972 79.0649 36.7972 79.0649Z" fill="#FF6969"/>
<path d="M39.584 63.08C39.584 63.08 50.9942 35.422 81.0639 41.3963C111.134 47.3707 112.937 75.8682 112.937 75.8682L151.123 82.5255C151.123 82.5255 149.314 11.0202 85.8067 1.59545C22.299 -7.82932 3.35165 56.7633 3.35165 56.7633L39.584 63.08Z" fill="#FF6969"/>
<path d="M79.1132 52.5857C52.5553 48.5113 45.8033 75.6938 45.8033 75.6938C45.8033 75.6938 46.5179 103.087 69.762 106.224C93.006 109.361 102.816 85.6333 102.816 85.6333C102.816 85.6333 105.671 56.6602 79.1132 52.5857Z" fill="#FF6969"/>
</svg>
