<svg width="150" height="56" viewBox="0 0 150 56" fill="none" xmlns="http://www.w3.org/2000/svg">
<g clip-path="url(#clip0_479_200)">
<path d="M0 20.3857L6.67904 31.6844L9.35065 29.1241L2.05937 18.2707L0 20.3857Z" fill="url(#paint0_linear_479_200)"/>
<path d="M99.4063 11.4803L99.1281 12.9831L102.301 11.9256L101.911 10.0888L99.4063 11.4803Z" fill="#0071B9"/>
<path d="M80.705 1.2948L70.4082 13.0944L73.4138 12.2595L83.2097 0.0146484L80.705 1.2948Z" fill="url(#paint1_linear_479_200)"/>
<path d="M135.863 17.4358L138.367 16.1L137.644 22.4451L135.863 17.4358Z" fill="#1D2C5E"/>
<path d="M120.111 21.4989L122.393 21.9998L125.232 20.6083L122.727 19.6621L120.111 21.4989Z" fill="#1D2C5E"/>
<path d="M42.6345 14.8198L42.9685 22.1111L46.141 20.8866L45.1948 13.4284L42.6345 14.8198Z" fill="url(#paint2_linear_479_200)"/>
<path d="M122.56 12.5935L120.056 13.9849L120.111 21.4989L122.672 20.2187L123.451 16.5452L122.56 12.5935Z" fill="url(#paint3_linear_479_200)"/>
<path d="M122.226 21.9998L119.443 46.7122L123.896 45.8217L124.731 20.664L122.226 21.9998Z" fill="#312370"/>
<path d="M127.625 47.8811L127.736 51.2206L136.252 53.9479L138.813 52.6121L130.408 46.1L121.948 45.3764L119.443 46.7122L127.625 47.8811Z" fill="#21386E"/>
<path d="M96.0111 41.9813L98.0705 40.8681L99.462 43.3171L101.41 42.2595L101.8 45.4877L114.212 47.7141L116.66 46.3226L99.5733 35.9145L87.4397 37.9738L85.1021 40.2558L96.0111 41.9813Z" fill="#21386E"/>
<path d="M92.0594 11.5916L89.5547 12.9831L85.1021 40.2558L87.6067 38.92L91.8924 23.6139L92.0594 11.5916Z" fill="url(#paint4_linear_479_200)"/>
<path d="M72.2449 15.2651L70.2412 16.3226L70.4082 16.9905L75.1392 13.985L73.0798 11.7586L70.4082 13.0944L72.2449 15.2651Z" fill="#1D2C5E"/>
<path d="M77.6438 47.4914L57.4397 37.4729L59.9443 35.5248L80.1484 46.1L77.6438 47.4914Z" fill="#21386E"/>
<path d="M59.3321 10.2002L56.2709 15.9887L59.4991 15.0425L61.8367 8.80872L59.3321 10.2002Z" fill="#1D2C5E"/>
<path d="M31.5028 34.189L28.9425 35.9701C28.9425 35.9701 29.4991 38.8644 30.2227 40.8681C30.9462 42.8718 32.616 44.4859 32.616 44.4859C33.7291 45.5434 35.0093 46.3226 36.5121 46.7679C39.3507 47.6028 42.5789 47.0462 45.3618 45.2651C46.0854 44.8198 47.0872 44.0963 47.6995 43.484C44.9722 45.1538 31.5028 34.189 31.5028 34.189Z" fill="url(#paint5_linear_479_200)"/>
<path d="M45.3618 21.5545L47.6995 47.5471L57.3841 46.1556L59.9444 44.8198L47.9778 19.9961L45.5288 20.831L42.9685 22.1111L45.3618 21.5545Z" fill="#1D2C5E"/>
<path d="M9.18372 30.5712L19.9815 55.0054L30.2227 51.7215L32.7273 50.0518L11.4657 27.7883L8.79411 29.4024L6.67908 31.6844L9.18372 30.5712Z" fill="url(#paint6_linear_479_200)"/>
<path d="M115.993 42.0926L116.16 43.3171C117.05 43.2057 117.941 43.0944 118.775 42.8161C119.722 42.4822 121.725 41.5916 122.449 40.9237C122.115 41.0351 117.44 42.2595 115.993 42.0926Z" fill="#1D2C5E"/>
<path d="M79.7588 35.8588L80.1484 37.8069C82.2078 37.4729 83.9888 36.7493 85.7699 35.6918C86.8831 35.0239 88.0519 34.0777 88.4415 33.7994C88.1632 33.9664 79.7588 35.8588 79.7588 35.8588Z" fill="#1D2C5E"/>
<path d="M22.7916 52.6755L22.0124 50.8944L11.7712 28.0744L11.5486 27.6291L11.1033 27.8518L10.7694 28.0187L8.93262 28.9093C8.65433 28.464 8.20906 27.6848 7.93077 27.1839L3.81203 20.2265L2.75452 18.3898L4.53559 17.2766C6.20535 16.2191 8.09774 15.2172 10.2128 14.3267C14.3315 12.6013 18.5059 11.6551 22.3464 11.6551C23.6265 11.6551 24.851 11.7664 25.9642 11.9334C27.8566 12.156 29.6376 12.7683 31.0848 13.7701C33.2554 14.9946 34.9809 16.887 35.9271 19.1134C36.7063 20.9501 36.8733 23.1208 36.3723 25.3471L36.094 26.6829L37.2072 25.9037C37.9308 25.3471 38.71 24.9019 39.5449 24.5679C40.992 23.9557 42.4948 23.6217 43.9976 23.6217C45.4447 23.6217 46.7805 23.9 48.005 24.4566L48.7842 24.7905L48.7285 23.9L48.3946 20.1709L48.3389 19.5586L47.7823 19.7256L46.0569 20.1709L45.7786 13.8258L58.4688 9.76271L58.3575 14.7163L59.3037 14.939L62.0866 9.65139L70.3797 16.9983L70.7137 17.3323L71.0477 16.9983C72.1608 15.9408 73.5523 15.0503 75.0551 14.438L75.6673 14.1597L75.2221 13.6032L73.7193 11.7664L83.2369 0.801666L88.2462 8.25992L80.6209 12.3787L78.9512 13.2692L80.8992 13.3249C84.517 13.3805 87.7452 14.939 89.9159 17.6106L90.6951 18.6124L91.1961 19.2247L90.3612 20.1152L89.8046 20.7275L87.9122 22.7868L87.5783 23.1764L87.9679 23.5104L89.749 25.1245L90.4169 25.7367L90.5838 24.8462L91.2517 20.6161L91.4187 19.503L91.5857 18.3898L92.5875 12.1004H102.05L102.105 11.6551L102.272 10.5976H110.51L112.513 23.1764L112.625 24.0113L113.293 23.5104C114.127 22.8981 115.018 22.4529 115.964 22.0633C117.244 21.5623 118.524 21.3397 119.86 21.3397C121.419 21.3397 122.922 21.6737 124.202 22.3972C124.257 22.3972 124.257 22.4529 124.369 22.5085L124.981 22.7312L125.037 22.0633L125.203 20.6718L125.259 20.2265L124.814 20.1152L123.144 19.7256L123.088 13.1579L135.834 15.9408L136.78 20.6718H137.782L138.784 16.6087L149.415 19.169L138.506 51.9519L130.769 49.503L130.714 46.4974V46.0521L130.268 45.9965L122.532 44.8833L122.977 40.9315L123.088 39.9853L122.254 40.4306C121.864 40.6532 121.474 40.8202 121.085 40.9315C119.805 41.4325 118.524 41.6551 117.244 41.6551C116.855 41.6551 116.521 41.6551 116.131 41.5994L115.463 41.5438L115.575 42.2117L116.131 45.6625L104.832 43.6588L104.22 38.5382L104.053 36.8685L103.274 38.3156L101.994 40.8202L99.6005 36.4232L98.877 35.0874L98.6543 36.5902L98.1534 39.9853L88.2462 38.4269L89.0254 33.7516L89.1924 32.6941L88.2462 33.2506C86.6321 34.1968 84.7397 34.9761 82.569 35.477C81.7898 35.644 81.0106 35.8109 80.1757 35.8666L79.7304 35.9223V45.2729L60.2499 35.644L59.5263 35.31V44.3824L50.7879 45.6625L50.3983 41.7108L50.287 40.6532L49.5078 41.3768C48.3389 42.49 47.0588 43.3805 45.6673 43.9928C44.2202 44.605 42.7174 44.939 41.2703 44.939C39.7675 44.939 38.376 44.605 37.0959 44.0484C34.7582 42.9352 33.0328 40.8759 32.3092 38.2599C31.9753 37.0354 31.864 35.7553 32.031 34.4195L32.1979 33.028L31.1961 34.0299C30.4725 34.6978 29.6933 35.3657 28.8584 35.9779L28.5801 36.2006L28.6914 36.5345L31.6413 47.7775L32.1423 49.7813L30.1942 50.3935L24.684 52.1746L22.7916 52.6755ZM25.2406 22.4529C24.9623 22.4529 24.684 22.4529 24.3501 22.5085L23.9605 22.5642L23.4039 22.6755L23.5708 23.2321L23.6822 23.566L25.2406 28.7423L25.4076 29.2432L25.6302 29.9668L26.1868 29.4659L26.5764 29.1319C28.1349 27.7404 28.6358 26.349 28.3018 24.5679C28.0792 23.5104 27.3 23.0095 26.799 22.7868C26.4651 22.5642 25.8528 22.4529 25.2406 22.4529ZM67.6525 22.6198L66.6506 23.566L64.0347 26.0707L63.4781 26.6273L64.2016 26.9056L66.9846 27.9631L67.8195 28.297L67.6525 27.4065C67.4298 26.2377 67.3742 25.0688 67.4855 23.9557L67.6525 22.6198ZM79.0068 19.7256C77.9493 19.7256 76.8918 20.1709 76.1683 21.0057C75.0551 22.2302 74.8324 24.067 75.6117 25.5141L75.8343 25.9037L76.1683 26.516L76.6692 25.9594L77.0031 25.6254L80.8436 21.284L81.1219 20.9501L81.6228 20.3935L80.9549 20.1152L80.5096 19.9482C79.953 19.8369 79.5078 19.7256 79.0068 19.7256Z" fill="#FFCB05"/>
<path d="M84.8237 26.1742L84.7124 26.2855C84.7681 26.2855 84.8237 26.2299 84.8237 26.1742Z" fill="#7D7F68"/>
<path d="M88.1632 23.1686L90.0556 21.1093L89.3877 21.7772V21.7215L88.8311 22.3337L86.9387 24.3375L88.7198 25.9516L89.0538 23.9478L89.9443 24.7271L88.1632 23.1686Z" fill="#7D7F68"/>
<path d="M88.1632 23.1686L89.9443 24.7271L90.6122 20.497L90.0556 21.1093L88.1632 23.1686Z" fill="#7D7F68"/>
<path d="M74.9721 28.2336C75.1391 28.4005 74.9722 28.2892 75.1391 28.4005L76.308 27.5657C76.141 27.4543 75.974 27.2874 75.807 27.1761C74.1373 25.6176 74.5825 22.1668 75.6401 20.2744C72.7458 22.612 72.9128 26.1742 74.9721 28.2336Z" fill="#C7A008"/>
<path d="M89.0538 30.1816C87.1058 31.7957 84.9351 32.7976 82.0408 33.5211C81.4286 33.6881 80.7607 33.7994 80.2041 33.7994C75.5844 34.2447 71.744 32.1297 70.2969 28.7345C70.1299 28.3449 69.9629 27.8996 69.8516 27.4544C69.1837 24.5601 69.7403 21.9998 71.1874 19.9404C71.3544 19.7178 71.4657 19.5508 71.6327 19.3839C71.577 19.4395 71.4657 19.4952 71.41 19.5508C70.8534 20.0518 70.3525 20.5527 69.9629 21.1649C68.5158 23.1686 67.9592 25.7846 68.6271 28.6788C68.7384 29.1241 68.8497 29.5694 69.0724 29.959C70.5195 33.4098 74.4156 35.5249 78.9796 35.0796C79.5918 35.0239 80.2041 34.9126 80.872 34.7456C83.7662 34.0221 85.9926 33.0202 87.885 31.4061C88.3302 31.0165 88.8312 30.5712 89.2764 30.126L89.2208 30.0703C89.1095 30.126 89.0538 30.126 89.0538 30.1816Z" fill="#C7A008"/>
<path d="M56.6049 21.4432L61.7254 14.2076L61.5028 14.0406L56.5492 20.9979L56.6049 21.4432Z" fill="#C7A008"/>
<path d="M90.6122 20.497L89.9443 24.7271L89.0538 23.9478L88.7198 25.9516L86.9387 24.3375L88.8311 22.3337L89.3877 21.7215V21.7772L90.0556 21.1093L90.6122 20.497Z" fill="#C7A008"/>
<path d="M84.2672 8.58606L86.0483 7.80684L82.7644 3.57678L81.7069 5.13522L84.2672 8.58606Z" fill="#C7A008"/>
<path d="M34.397 19.0499C26.0482 8.92 11.076 14.3745 5.73279 19.1055L5.95542 19.4951C7.17991 18.7716 8.51572 18.1593 9.85153 17.5471C15.1948 15.2651 20.3153 14.5972 24.3784 15.3207C25.8256 15.4877 27.3283 15.933 28.6641 16.8235C30.5009 17.881 31.8923 19.3282 32.7272 21.2206C34.1743 24.5601 32.8942 29.0128 29.499 32.6862C33.7847 28.7345 36.7346 24.9497 34.397 19.0499Z" fill="#C7A008"/>
<path d="M51.3729 30.8495C51.3173 30.6825 51.3173 30.4599 51.2616 30.2929C50.8163 28.6232 49.8145 27.2874 48.4787 26.3968C46.3636 24.9497 43.3581 24.6714 40.4082 25.8959C38.8497 26.5638 37.5139 27.6213 36.4008 28.8458C37.2356 28.1222 38.1818 27.5657 39.1837 27.1204C42.1336 25.8402 45.1392 26.1742 47.2542 27.6213C48.59 28.5118 49.5919 29.8477 50.0371 31.5174C50.0928 31.6844 50.1484 31.907 50.1484 32.074C50.2598 32.7419 50.3154 33.3541 50.3154 34.022C50.2598 35.9701 49.5362 37.9182 48.3674 39.5879C48.2004 39.8662 47.9778 40.0888 47.7551 40.3671C48.423 39.7549 49.0353 39.1426 49.5362 38.4191C50.7607 36.7493 51.4286 34.8013 51.5399 32.8532C51.5399 32.1853 51.4842 31.5174 51.3729 30.8495Z" fill="#C7A008"/>
<path d="M43.1911 28.4005C43.1911 28.4005 44.4155 27.176 44.3599 27.176C42.8571 27.1204 42.1892 28.5675 42.1335 28.6788C42.4675 28.5118 42.8014 28.4562 43.1911 28.4005Z" fill="#C7A008"/>
<path d="M46.0297 30.1259C46.0853 30.3486 46.141 30.5156 46.141 30.7382C46.141 31.0721 46.0853 31.3504 45.9183 31.6287C46.141 31.5174 47.922 30.6269 47.2541 28.8458C47.3098 28.9571 45.974 30.1259 46.0297 30.1259Z" fill="#C7A008"/>
<path d="M39.1281 31.1835C39.1281 30.4599 40.4082 28.6232 40.7978 28.0109C38.7941 29.2911 37.9036 31.0165 37.9036 32.3523C37.9036 34.69 39.9629 36.5824 42.4119 36.5824C43.5807 36.5824 45.6958 35.9701 47.0872 33.7438C46.3637 34.2447 44.5269 35.3579 43.5251 35.3579C41.0761 35.3579 39.1281 33.5211 39.1281 31.1835Z" fill="#C7A008"/>
<path d="M56.3265 33.2985L56.3822 42.7048L57.885 42.8161L57.551 32.074L56.3265 33.2985Z" fill="#C7A008"/>
<path d="M47.7551 15.3208V16.1556L54.8794 14.0406L55.3804 23.113L56.6048 21.4432L56.3266 12.3708L47.7551 15.3208Z" fill="#C7A008"/>
<path d="M69.1837 18.549L62.5603 12.4265L61.7255 14.2076L67.6253 19.7178L69.1837 18.549Z" fill="#C7A008"/>
<path d="M68.1819 29.959L60.334 27.343L59.2208 28.5675L67.013 31.6844C67.9036 33.3542 69.2394 34.8013 70.9091 35.8031C72.5232 36.805 74.4156 37.4172 76.3637 37.5842V41.4247L77.5882 42.0369L77.9778 36.2484L68.1819 29.959Z" fill="#C7A008"/>
<path d="M80.7607 28.9015C82.7087 28.4562 83.7662 27.4543 84.7681 26.3412C84.0445 26.9534 80.4824 27.7326 79.8701 27.8996L78.7013 29.1797C79.2022 29.1797 80.0928 29.0684 80.7607 28.9015Z" fill="#C7A008"/>
<path d="M77.2542 15.5434C73.6921 15.9887 71.8553 18.9942 71.577 19.3282C72.9128 18.215 74.5269 17.3801 76.3637 16.9905C80.7607 15.933 84.6011 17.2688 86.9945 20.2187L88.4972 18.9942C86.1039 16.1 81.6512 14.4859 77.2542 15.5434Z" fill="#C7A008"/>
<path d="M89.1651 30.0703C89.6104 29.7364 90.3339 29.3467 90.7792 28.9015L86.0482 24.6714C85.6586 25.1167 85.3803 25.8402 84.9351 26.1742L89.1651 30.0703Z" fill="#C7A008"/>
<path d="M113.488 41.4247C108.534 37.3059 108.813 28.5675 111.262 25.7846L109.091 12.0369L104.304 12.6491L104.082 13.8736H107.699L109.648 26.3412C107.199 29.1241 106.03 32.8532 106.809 36.3041C107.421 38.9757 109.091 41.0907 111.429 42.3152C111.651 42.4265 111.93 42.5378 112.152 42.6491L112.208 42.8161L113.655 43.0388C113.599 43.0944 113.766 41.536 113.488 41.4247Z" fill="#C7A008"/>
<path d="M94.3971 14.0406L94.1744 15.2651H99.629L101.243 24.1148L102.468 22.8903L101.187 13.5397L94.3971 14.0406Z" fill="#C7A008"/>
<path d="M103.748 31.1835L101.967 35.7475L102.412 36.972L104.916 30.0146L103.748 31.1835Z" fill="#C7A008"/>
<path d="M98.5157 28.3449L97.2913 29.5694L95.9554 37.8068L97.2356 38.2521L98.5157 28.3449Z" fill="#C7A008"/>
<path d="M123.061 25.6733C123.785 26.1742 124.397 26.8421 124.842 27.6213C125.232 28.2336 125.455 28.8458 125.677 29.625C126.289 32.1297 125.566 34.8013 124.007 36.9163C123.84 37.1389 123.673 37.3616 123.506 37.5285C124.119 36.972 131.911 31.2391 124.341 23.7252C115.993 20.9979 112.82 26.3968 112.542 26.7864C113.432 26.0629 114.434 25.395 115.547 25.0054C118.33 23.8922 121.113 24.2818 123.061 25.6733Z" fill="#C7A008"/>
<path d="M118.887 26.2299C118.887 26.2855 120.111 25.0054 120.111 25.0054C118.609 25.061 117.885 25.7846 117.996 26.1185C117.885 26.2299 117.829 26.3968 117.774 26.5082C118.052 26.3412 118.664 26.2299 118.887 26.2299Z" fill="#C7A008"/>
<path d="M121.67 28.1223C121.725 28.3449 121.725 28.5119 121.725 28.7345C121.725 29.0128 121.614 29.2911 121.503 29.5137C121.725 29.4024 123.507 28.8458 122.839 26.8421C122.894 26.9534 121.614 28.1223 121.67 28.1223Z" fill="#C7A008"/>
<path d="M117.718 34.4117C119.388 34.4673 121.28 33.4655 122.616 31.6287C119.221 32.3523 115.603 26.6195 115.937 26.0629C114.657 27.0091 113.488 28.7901 113.432 30.0703C113.321 32.408 115.269 34.3003 117.718 34.4117Z" fill="#C7A008"/>
<path d="M136.475 49.2725L137.254 49.7735L147.05 20.3857L139.703 18.7159L139.648 20.4414L145.547 21.7215L136.475 49.2725Z" fill="#C7A008"/>
<path d="M124.842 15.5434L124.898 17.2132L132.69 18.7716L135.696 33.0202L136.92 31.7957L134.026 17.3801L124.842 15.5434Z" fill="#C7A008"/>
<path d="M130.853 31.7957L128.683 43.9293L129.907 44.3189L132.078 30.5712L130.853 31.7957Z" fill="#C7A008"/>
<path d="M29.7217 48.382L26.1039 35.1352L24.7681 36.0814L28.1632 48.7159L29.7217 48.382Z" fill="#C7A008"/>
<path d="M28.7755 28.5119C27.9406 29.4024 26.0482 31.1278 24.9907 31.7957L24.3228 29.7363L22.9313 25.1723L22.0408 22.1111L21.1503 23.2243L22.0408 26.2855L23.4323 30.7939L24.1002 32.8532C25.603 32.0183 27.718 30.2373 28.7755 28.5119Z" fill="#C7A008"/>
<path d="M80.4267 20.664C79.2579 20.2187 77.6438 20.33 76.7532 21.3319C76.5306 21.5545 76.141 22.1111 76.0297 22.3894C76.8645 21.7215 78.423 21.5545 79.3692 21.9441L80.4267 20.664Z" fill="#7D7F68"/>
<path d="M27.7737 24.7827C27.6624 24.1148 26.9945 23.5582 26.6605 23.3913C26.104 23.113 25.0464 23.0573 24.3229 23.2243C24.4342 23.6696 24.6012 24.2262 24.6568 24.4488C24.9351 24.5044 25.436 24.5601 25.7143 24.6714C26.0483 24.8384 26.6049 25.1723 26.7162 25.8959C26.8832 26.7864 26.8275 27.677 26.4379 28.3449C27.4954 27.343 27.9963 26.2299 27.7737 24.7827Z" fill="#7D7F68"/>
<path d="M29.582 24.7349C29.0811 22.0632 25.5746 20.5605 22.0681 22.4529L22.9587 25.5141L24.3501 30.0781L25.018 32.1375C27.634 30.5234 30.2499 28.464 29.582 24.7349ZM26.1312 28.9093C25.7416 27.6848 24.9067 25.0132 24.9067 25.0132C24.9067 25.0132 24.7397 24.4566 24.5171 23.7887C25.2407 23.6774 25.9642 23.733 26.5208 24.0113C26.8548 24.1783 27.4113 24.5122 27.5227 25.2358C27.8566 26.6829 27.3557 27.7961 26.1312 28.9093Z" fill="#3C5AA6"/>
<path d="M82.2351 20.5048C80.287 18.7237 77.2815 18.835 75.5004 20.7831C73.7193 22.7311 73.8306 25.7367 75.7787 27.5178C75.9457 27.6848 76.1126 27.7961 76.2796 27.9074L82.569 20.7831C82.4577 20.7274 82.3464 20.6161 82.2351 20.5048ZM76.3353 25.5141C75.723 24.4009 75.8343 22.9538 76.7805 21.9519C77.6711 21.0057 79.0069 20.7274 80.1757 21.1727L76.3353 25.5141Z" fill="#3567B0"/>
<path d="M90.6122 19.7178L87.1614 23.0573L90.4452 26.0072L90.6122 19.7178Z" fill="#1E2D5F"/>
<path d="M122.839 26.8978C122.894 27.1204 122.894 27.343 122.894 27.5657C122.839 28.9015 121.614 29.9033 120.111 29.8477C118.609 29.792 117.44 28.6788 117.495 27.343C117.551 26.1185 118.664 25.1167 120 25.061C119.722 25.0054 119.443 24.9497 119.165 24.9497C116.66 24.8384 114.657 26.6195 114.545 28.7902C114.434 31.1278 116.327 33.0759 118.775 33.1315C121.28 33.2428 123.284 31.4618 123.395 29.1241C123.562 28.3449 123.284 27.5657 122.839 26.8978Z" fill="#3466AF"/>
<path d="M47.3655 29.5694C47.3655 30.9052 46.141 31.9627 44.6939 31.9627C43.1911 31.9627 42.0223 30.9052 42.0223 29.5694C42.0223 28.3449 43.0798 27.2874 44.4713 27.176C44.193 27.1204 43.9147 27.1204 43.6364 27.1204C41.1318 27.1204 39.1837 28.9571 39.1837 31.1835C39.1837 33.5211 41.1318 35.3579 43.5807 35.3579C46.0854 35.3579 48.0334 33.5211 48.0334 31.1835C48.0334 30.3486 47.7551 29.625 47.3099 28.9571C47.3099 29.1241 47.3655 29.3467 47.3655 29.5694Z" fill="url(#paint7_linear_479_200)"/>
<path d="M138.339 16.1078L137.226 20.6718L136.224 15.6068L122.532 12.6013L122.643 20.2265L124.703 20.6718L124.536 22.0632C124.536 22.0632 124.48 22.0632 124.48 22.0076C121.92 20.6718 118.747 20.5048 115.797 21.6736C114.795 22.0632 113.849 22.5642 113.014 23.1764L110.955 10.1523H101.883L101.66 11.6551H92.0866L90.9735 18.3341L90.1943 17.3323C87.8566 14.4937 84.5171 12.9352 80.788 12.8239L88.9141 8.48254L83.2369 0.0224304L72.9958 11.8221L74.7768 13.9927C73.1627 14.6606 71.7713 15.5512 70.6024 16.6644L61.8084 8.87215L58.7471 14.7163L58.8585 9.03913L45.1108 13.4362L45.5004 20.7831L47.8381 20.1709L48.172 23.9C45.5004 22.6755 42.2722 22.7311 39.3223 24.0113C38.4317 24.4009 37.5969 24.8462 36.8733 25.4028C37.3742 23.1208 37.2629 20.8944 36.3724 18.8907C35.3705 16.553 33.5338 14.5493 31.3631 13.3248C29.8047 12.2673 27.9679 11.6551 26.0199 11.4324C21.2889 10.5976 15.5561 11.4324 9.93453 13.8258C7.87516 14.7163 5.92711 15.7182 4.20169 16.8313L2.03101 18.2228L3.36681 20.4491L7.48555 27.4621L8.7657 29.5772L10.992 28.464L11.326 28.297L21.5672 51.1171L22.569 53.2877L24.851 52.5642L30.3612 50.7831L32.8102 50.0039L32.198 47.5549L29.2481 36.3119C30.083 35.6996 30.8622 35.0317 31.5857 34.3081C31.4188 35.644 31.5301 37.0354 31.864 38.3156C32.6432 41.0428 34.4243 43.2135 36.929 44.3824C39.6006 45.6625 42.8844 45.6625 45.89 44.3824C47.3928 43.7145 48.7842 42.8239 49.8974 41.6551L50.287 46.1634L59.9716 44.7163V36.0336L80.1757 46.0521V36.4232C81.0106 36.3675 81.7898 36.2005 82.6247 36.0336C84.851 35.477 86.7434 34.7534 88.4688 33.7516L87.634 38.9278L98.5431 40.6532L99.1553 36.7015L101.994 41.989L103.719 38.6495L104.332 44.1597L116.688 46.3304L116.02 42.156C117.69 42.323 119.471 42.1004 121.196 41.4881C121.586 41.3211 122.031 41.1542 122.365 40.9315L121.864 45.3842L130.101 46.553L130.157 49.9482L138.729 52.6198L149.916 18.9464L138.339 16.1078ZM90.0273 21.117L90.5839 20.5048L89.916 24.7349L88.1349 23.1208L90.0273 21.117ZM82.7917 3.75156L85.7972 7.81464L77.2258 12.0447L76.6136 11.1542C76.6136 11.2098 82.7917 3.75156 82.7917 3.75156ZM26.0755 35.143L29.4707 48.2785L23.9605 50.0595L12.6061 24.6792C11.9939 25.0132 10.8251 25.5697 9.82321 26.0707L5.70447 19.1133C7.31857 18.0558 9.15531 17.1653 11.0477 16.3304C16.3909 14.0484 21.5115 13.3805 25.5746 14.1041C27.0217 14.271 28.5245 14.7163 29.8603 15.6068C31.6971 16.6644 33.0885 18.1115 33.9234 20.0039C35.9271 24.5679 32.6432 31.1356 26.0755 35.143ZM51.5115 32.8054C51.4559 34.7534 50.7323 36.7015 49.5078 38.3712C48.339 39.9853 46.7805 41.2655 44.8881 42.1004C40.1015 44.1597 35.3149 42.1004 34.0347 37.5363C32.8102 33.1393 35.7045 27.9074 40.3241 25.9037C43.274 24.6235 46.2796 24.9575 48.3946 26.4046C49.7304 27.2952 50.7323 28.631 51.1776 30.3007C51.2332 30.4677 51.2889 30.6903 51.2889 30.8573C51.5115 31.5252 51.5115 32.1931 51.5115 32.8054ZM77.6154 42.1004L57.5227 32.0818L57.5783 42.6013L52.4021 43.3248L52.0124 38.9835C53.6265 36.2562 54.1831 32.9723 53.3483 30.0224C52.903 28.4083 52.0681 26.9612 50.8993 25.848L50.1757 16.9983L47.8381 17.6106L47.7267 15.3842L56.0755 12.8796L56.5765 21.451L62.6989 12.8239L68.7657 18.5568L60.3612 27.4065L68.2648 30.5234C69.1553 32.1931 70.4911 33.5846 72.1609 34.6421C73.775 35.644 75.6674 36.2562 77.6154 36.4232V42.1004ZM67.2073 27.5178L64.4243 26.4603L67.0403 23.9556C66.8733 25.1245 66.929 26.2933 67.2073 27.5178ZM89.0254 30.1894C87.0774 31.8035 84.9067 32.8054 82.0124 33.5289C81.4002 33.6959 80.7323 33.8072 80.1757 33.8072C75.556 34.2525 71.7156 32.1375 70.2685 28.7423C70.1015 28.3527 69.9345 27.9074 69.8232 27.4621C69.1553 24.5679 69.7119 22.0076 71.159 19.9482C71.5486 19.336 72.0495 18.835 72.6061 18.3341C73.9419 17.1096 75.6674 16.2747 77.6154 15.7738C82.0124 14.7163 85.8529 16.0521 88.2462 18.9464L79.8974 27.8517C80.454 27.9631 81.3445 27.7961 82.0124 27.6291C84.0162 27.1282 85.1293 26.0707 86.0755 24.9575L89.415 27.9631L90.4169 28.8536C89.9716 29.3545 89.5264 29.7998 89.0254 30.1894ZM106.781 42.0447L104.944 30.0224L102.383 36.6458L98.5431 28.3527H98.4874L96.9846 37.9816L90.5839 36.8684L91.4744 31.5252C91.697 31.3026 91.9753 31.0799 92.198 30.8017L94.2573 28.6866L92.2536 26.8499L94.4243 14.0484H100.881L102.495 22.8981L104.332 12.6569H108.951L110.899 25.1245C108.45 27.9074 107.281 31.6365 108.061 35.0874C108.673 37.759 110.343 39.874 112.68 41.1542C112.903 41.2655 113.181 41.3768 113.404 41.4881L113.627 43.1022L106.781 42.0447ZM122.755 38.0929C122.031 38.5939 121.252 39.0391 120.417 39.3174C118.747 39.9297 117.133 40.0966 115.63 39.7627C114.628 39.5401 113.682 39.1504 112.847 38.5939C111.567 37.6477 110.621 36.3119 110.176 34.5864C109.675 32.5271 110.12 30.3007 111.233 28.3527C111.79 27.4065 112.513 26.5159 113.348 25.7367C114.294 24.9018 115.408 24.1783 116.576 23.733C119.415 22.6755 122.198 23.0651 124.146 24.4566C124.87 24.9575 125.482 25.6254 125.927 26.4046C126.261 27.0169 126.539 27.6848 126.706 28.4083C127.319 30.913 126.595 33.5846 125.037 35.6996C124.536 36.6458 123.701 37.425 122.755 38.0929ZM137.226 49.4473L132.495 48.0558L132.105 30.579L129.712 44.0484L124.536 43.2135L124.925 39.3174C128.32 36.4788 130.101 31.9705 129.1 27.8517C128.654 26.0707 127.764 24.4566 126.428 23.2877L126.873 18.7237L124.925 18.2228L124.981 15.7738L133.886 17.5549L136.892 31.7478L139.953 19.002L146.743 20.5048L137.226 49.4473Z" fill="url(#paint8_linear_479_200)"/>
<path d="M143.599 47.4915H143.822C144.1 47.4915 144.323 47.3801 144.323 47.1018C144.323 46.9349 144.156 46.7122 143.822 46.7122H143.599V47.4915ZM143.599 48.6603H143.265V46.5453C143.432 46.4896 143.599 46.4896 143.878 46.4896C144.211 46.4896 144.434 46.5453 144.545 46.6566C144.657 46.7679 144.768 46.8792 144.768 47.1018C144.768 47.3801 144.601 47.5471 144.378 47.6028C144.545 47.6584 144.712 47.8254 144.712 48.1037C144.768 48.4377 144.824 48.549 144.824 48.6046H144.49C144.434 48.549 144.378 48.3263 144.323 48.048C144.267 47.7698 144.156 47.6584 143.878 47.6584H143.599V48.6603ZM143.989 45.933C143.154 45.933 142.486 46.6566 142.486 47.5471C142.486 48.4377 143.154 49.1612 144.044 49.1612C144.879 49.1612 145.547 48.4377 145.547 47.5471C145.492 46.6566 144.824 45.933 143.989 45.933ZM143.989 45.6547C145.046 45.6547 145.826 46.4896 145.826 47.5471C145.826 48.6046 144.991 49.4395 143.933 49.4395C142.876 49.4395 142.041 48.6046 142.041 47.5471C142.096 46.4896 142.931 45.6547 143.989 45.6547Z" fill="black"/>
</g>
<defs>
<linearGradient id="paint0_linear_479_200" x1="7.4026" y1="29.8054" x2="1.82672" y2="19.415" gradientUnits="userSpaceOnUse">
<stop stop-color="#0070B6"/>
<stop offset="1" stop-color="#1D2C5E"/>
</linearGradient>
<linearGradient id="paint1_linear_479_200" x1="75.4036" y1="8.57828" x2="82.4806" y2="0.995354" gradientUnits="userSpaceOnUse">
<stop stop-color="#0070B6"/>
<stop offset="1" stop-color="#1D2C5E"/>
</linearGradient>
<linearGradient id="paint2_linear_479_200" x1="44.528" y1="21.2206" x2="43.6842" y2="14.1308" gradientUnits="userSpaceOnUse">
<stop stop-color="#0070B6"/>
<stop offset="1" stop-color="#1D2C5E"/>
</linearGradient>
<linearGradient id="paint3_linear_479_200" x1="121.835" y1="19.8558" x2="121.498" y2="13.4562" gradientUnits="userSpaceOnUse">
<stop stop-color="#125D9E"/>
<stop offset="1" stop-color="#1D2C5E"/>
</linearGradient>
<linearGradient id="paint4_linear_479_200" x1="98.2158" y1="10.6315" x2="90.7887" y2="22.4467" gradientUnits="userSpaceOnUse">
<stop stop-color="#125D9E"/>
<stop offset="1" stop-color="#1D2C5E"/>
</linearGradient>
<linearGradient id="paint5_linear_479_200" x1="32.488" y1="29.5822" x2="37.5518" y2="39.5412" gradientUnits="userSpaceOnUse">
<stop stop-color="#105FA1"/>
<stop offset="1" stop-color="#1D2C5E"/>
</linearGradient>
<linearGradient id="paint6_linear_479_200" x1="13.3809" y1="26.1831" x2="19.2418" y2="39.7694" gradientUnits="userSpaceOnUse">
<stop stop-color="#105FA1"/>
<stop offset="1" stop-color="#1D2C5E"/>
</linearGradient>
<linearGradient id="paint7_linear_479_200" x1="39.103" y1="31.2302" x2="47.9689" y2="31.2302" gradientUnits="userSpaceOnUse">
<stop stop-color="#3C5AA6"/>
<stop offset="0.933" stop-color="#2B73B9"/>
<stop offset="1" stop-color="#2A75BB"/>
</linearGradient>
<linearGradient id="paint8_linear_479_200" x1="2.07386" y1="26.6668" x2="149.983" y2="26.6668" gradientUnits="userSpaceOnUse">
<stop stop-color="#3C5AA6"/>
<stop offset="0.933" stop-color="#2B73B9"/>
<stop offset="1" stop-color="#2A75BB"/>
</linearGradient>
<clipPath id="clip0_479_200">
<rect width="150" height="55.02" fill="white"/>
</clipPath>
</defs>
</svg>
